<mxfile host="app.diagrams.net" modified="2023-02-10T08:22:33.071Z" agent="5.0 (Macintosh; Intel Mac OS X 10_15_7) AppleWebKit/537.36 (KHTML, like Gecko) Chrome/109.0.0.0 Safari/537.36" etag="5dbSnETkYdyCU5vthOPg" version="20.8.15" type="github">
  <diagram name="第 1 页" id="tFLGTTDeLFZLiudFIeOs">
    <mxGraphModel dx="1400" dy="1119" grid="0" gridSize="10" guides="1" tooltips="1" connect="1" arrows="1" fold="1" page="0" pageScale="1" pageWidth="827" pageHeight="1169" math="0" shadow="0">
      <root>
        <mxCell id="0" />
        <mxCell id="1" parent="0" />
        <mxCell id="3kHz4TNMYk4Un0ogKNSx-10" value="5、加载弹窗&lt;br&gt;组件" style="edgeStyle=orthogonalEdgeStyle;rounded=0;orthogonalLoop=1;jettySize=auto;html=1;entryX=0;entryY=0.5;entryDx=0;entryDy=0;" edge="1" parent="1" source="3kHz4TNMYk4Un0ogKNSx-11" target="3kHz4TNMYk4Un0ogKNSx-19">
          <mxGeometry x="-0.0526" relative="1" as="geometry">
            <mxPoint x="261" y="375" as="targetPoint" />
            <mxPoint as="offset" />
          </mxGeometry>
        </mxCell>
        <mxCell id="3kHz4TNMYk4Un0ogKNSx-11" value="通天塔" style="rounded=0;whiteSpace=wrap;html=1;fillColor=#dae8fc;strokeColor=#6c8ebf;" vertex="1" parent="1">
          <mxGeometry x="46" y="350" width="150" height="50" as="geometry" />
        </mxCell>
        <mxCell id="3kHz4TNMYk4Un0ogKNSx-12" value="" style="edgeStyle=orthogonalEdgeStyle;rounded=0;orthogonalLoop=1;jettySize=auto;html=1;" edge="1" parent="1" target="3kHz4TNMYk4Un0ogKNSx-11">
          <mxGeometry relative="1" as="geometry">
            <mxPoint x="121" y="290" as="sourcePoint" />
          </mxGeometry>
        </mxCell>
        <mxCell id="3kHz4TNMYk4Un0ogKNSx-13" value="&lt;span style=&quot;font-size: 12px; background-color: rgb(251, 251, 251);&quot;&gt;付费渠道广义新用户&lt;/span&gt;" style="edgeLabel;html=1;align=center;verticalAlign=middle;resizable=0;points=[];" vertex="1" connectable="0" parent="3kHz4TNMYk4Un0ogKNSx-12">
          <mxGeometry x="-0.64" y="-2" relative="1" as="geometry">
            <mxPoint x="2" y="19" as="offset" />
          </mxGeometry>
        </mxCell>
        <mxCell id="3kHz4TNMYk4Un0ogKNSx-14" value="Actor" style="shape=umlActor;verticalLabelPosition=bottom;verticalAlign=top;html=1;outlineConnect=0;" vertex="1" parent="1">
          <mxGeometry x="106" y="210" width="30" height="60" as="geometry" />
        </mxCell>
        <mxCell id="3kHz4TNMYk4Un0ogKNSx-28" value="" style="edgeStyle=orthogonalEdgeStyle;rounded=0;orthogonalLoop=1;jettySize=auto;html=1;" edge="1" parent="1" source="3kHz4TNMYk4Un0ogKNSx-15" target="3kHz4TNMYk4Un0ogKNSx-27">
          <mxGeometry relative="1" as="geometry" />
        </mxCell>
        <mxCell id="3kHz4TNMYk4Un0ogKNSx-39" style="edgeStyle=orthogonalEdgeStyle;rounded=0;orthogonalLoop=1;jettySize=auto;html=1;exitX=1;exitY=0.75;exitDx=0;exitDy=0;entryX=0.836;entryY=1.02;entryDx=0;entryDy=0;entryPerimeter=0;" edge="1" parent="1" source="3kHz4TNMYk4Un0ogKNSx-15" target="3kHz4TNMYk4Un0ogKNSx-21">
          <mxGeometry relative="1" as="geometry" />
        </mxCell>
        <mxCell id="3kHz4TNMYk4Un0ogKNSx-40" value="8、当展示为商品且是关联活动页品类推荐是，&lt;br&gt;一并返回商品品类信息" style="edgeLabel;html=1;align=center;verticalAlign=middle;resizable=0;points=[];" vertex="1" connectable="0" parent="3kHz4TNMYk4Un0ogKNSx-39">
          <mxGeometry x="0.2171" relative="1" as="geometry">
            <mxPoint y="1" as="offset" />
          </mxGeometry>
        </mxCell>
        <mxCell id="3kHz4TNMYk4Un0ogKNSx-15" value="千目" style="rounded=0;whiteSpace=wrap;html=1;fillColor=#ffe6cc;strokeColor=#d79b00;" vertex="1" parent="1">
          <mxGeometry x="40" y="535" width="155" height="50" as="geometry" />
        </mxCell>
        <mxCell id="3kHz4TNMYk4Un0ogKNSx-16" style="edgeStyle=orthogonalEdgeStyle;rounded=0;orthogonalLoop=1;jettySize=auto;html=1;entryX=0;entryY=0.5;entryDx=0;entryDy=0;" edge="1" parent="1" source="3kHz4TNMYk4Un0ogKNSx-19" target="3kHz4TNMYk4Un0ogKNSx-21">
          <mxGeometry relative="1" as="geometry" />
        </mxCell>
        <mxCell id="3kHz4TNMYk4Un0ogKNSx-17" value="4、" style="edgeLabel;html=1;align=center;verticalAlign=middle;resizable=0;points=[];" vertex="1" connectable="0" parent="3kHz4TNMYk4Un0ogKNSx-16">
          <mxGeometry y="4" relative="1" as="geometry">
            <mxPoint x="-7" y="4" as="offset" />
          </mxGeometry>
        </mxCell>
        <mxCell id="3kHz4TNMYk4Un0ogKNSx-18" value="6、打开弹窗" style="edgeLabel;html=1;align=center;verticalAlign=middle;resizable=0;points=[];" vertex="1" connectable="0" parent="3kHz4TNMYk4Un0ogKNSx-16">
          <mxGeometry x="0.1515" y="-2" relative="1" as="geometry">
            <mxPoint x="-14" as="offset" />
          </mxGeometry>
        </mxCell>
        <mxCell id="3kHz4TNMYk4Un0ogKNSx-19" value="是否干预" style="rhombus;whiteSpace=wrap;html=1;" vertex="1" parent="1">
          <mxGeometry x="330" y="345" width="112" height="60" as="geometry" />
        </mxCell>
        <mxCell id="3kHz4TNMYk4Un0ogKNSx-20" value="7、请求获取弹窗内容" style="edgeStyle=orthogonalEdgeStyle;rounded=0;orthogonalLoop=1;jettySize=auto;html=1;exitX=0.25;exitY=1;exitDx=0;exitDy=0;" edge="1" parent="1" source="3kHz4TNMYk4Un0ogKNSx-21">
          <mxGeometry relative="1" as="geometry">
            <mxPoint x="196" y="549" as="targetPoint" />
            <Array as="points">
              <mxPoint x="560" y="400" />
              <mxPoint x="560" y="549" />
            </Array>
            <mxPoint x="537" y="389" as="sourcePoint" />
          </mxGeometry>
        </mxCell>
        <mxCell id="3kHz4TNMYk4Un0ogKNSx-32" style="edgeStyle=orthogonalEdgeStyle;rounded=0;orthogonalLoop=1;jettySize=auto;html=1;exitX=1;exitY=0.5;exitDx=0;exitDy=0;" edge="1" parent="1" source="3kHz4TNMYk4Un0ogKNSx-21" target="3kHz4TNMYk4Un0ogKNSx-31">
          <mxGeometry relative="1" as="geometry" />
        </mxCell>
        <mxCell id="3kHz4TNMYk4Un0ogKNSx-33" value="9、判断展示素材类型" style="edgeLabel;html=1;align=center;verticalAlign=middle;resizable=0;points=[];" vertex="1" connectable="0" parent="3kHz4TNMYk4Un0ogKNSx-32">
          <mxGeometry x="-0.4157" y="-1" relative="1" as="geometry">
            <mxPoint x="33" y="-1" as="offset" />
          </mxGeometry>
        </mxCell>
        <mxCell id="3kHz4TNMYk4Un0ogKNSx-21" value="弹窗曝光" style="rounded=0;whiteSpace=wrap;html=1;fillColor=#d5e8d4;strokeColor=#82b366;" vertex="1" parent="1">
          <mxGeometry x="551" y="350" width="110" height="50" as="geometry" />
        </mxCell>
        <mxCell id="3kHz4TNMYk4Un0ogKNSx-22" value="" style="endArrow=classic;html=1;rounded=0;" edge="1" parent="1">
          <mxGeometry width="50" height="50" relative="1" as="geometry">
            <mxPoint x="61" y="400" as="sourcePoint" />
            <mxPoint x="61" y="530" as="targetPoint" />
          </mxGeometry>
        </mxCell>
        <mxCell id="3kHz4TNMYk4Un0ogKNSx-23" value="&lt;span style=&quot;font-size: 12px; background-color: rgb(251, 251, 251);&quot;&gt;2、验资请求&lt;/span&gt;" style="edgeLabel;html=1;align=center;verticalAlign=middle;resizable=0;points=[];" vertex="1" connectable="0" parent="3kHz4TNMYk4Un0ogKNSx-22">
          <mxGeometry x="0.0462" y="-4" relative="1" as="geometry">
            <mxPoint as="offset" />
          </mxGeometry>
        </mxCell>
        <mxCell id="3kHz4TNMYk4Un0ogKNSx-24" value="" style="endArrow=classic;html=1;rounded=0;entryX=0.827;entryY=1;entryDx=0;entryDy=0;entryPerimeter=0;" edge="1" parent="1" target="3kHz4TNMYk4Un0ogKNSx-11">
          <mxGeometry width="50" height="50" relative="1" as="geometry">
            <mxPoint x="171" y="530" as="sourcePoint" />
            <mxPoint x="191" y="440" as="targetPoint" />
          </mxGeometry>
        </mxCell>
        <mxCell id="3kHz4TNMYk4Un0ogKNSx-25" value="4、验资结果" style="edgeLabel;html=1;align=center;verticalAlign=middle;resizable=0;points=[];" vertex="1" connectable="0" parent="3kHz4TNMYk4Un0ogKNSx-24">
          <mxGeometry x="0.0307" relative="1" as="geometry">
            <mxPoint as="offset" />
          </mxGeometry>
        </mxCell>
        <mxCell id="3kHz4TNMYk4Un0ogKNSx-26" value="通天塔" style="rounded=0;whiteSpace=wrap;html=1;fillColor=#dae8fc;strokeColor=#6c8ebf;" vertex="1" parent="1">
          <mxGeometry x="42.5" y="820" width="150" height="50" as="geometry" />
        </mxCell>
        <mxCell id="3kHz4TNMYk4Un0ogKNSx-29" value="" style="edgeStyle=orthogonalEdgeStyle;rounded=0;orthogonalLoop=1;jettySize=auto;html=1;" edge="1" parent="1" source="3kHz4TNMYk4Un0ogKNSx-27" target="3kHz4TNMYk4Un0ogKNSx-26">
          <mxGeometry relative="1" as="geometry" />
        </mxCell>
        <mxCell id="3kHz4TNMYk4Un0ogKNSx-30" value="3、获取当前活动页投放商品品类信息" style="edgeLabel;html=1;align=center;verticalAlign=middle;resizable=0;points=[];" vertex="1" connectable="0" parent="3kHz4TNMYk4Un0ogKNSx-29">
          <mxGeometry x="-0.4676" y="-3" relative="1" as="geometry">
            <mxPoint x="3" y="14" as="offset" />
          </mxGeometry>
        </mxCell>
        <mxCell id="3kHz4TNMYk4Un0ogKNSx-27" value="命中计划配置素材是否为商品（按会场品类特征推荐）" style="strokeWidth=1;html=1;shape=mxgraph.flowchart.decision;whiteSpace=wrap;" vertex="1" parent="1">
          <mxGeometry x="51.25" y="650" width="132.5" height="110" as="geometry" />
        </mxCell>
        <mxCell id="3kHz4TNMYk4Un0ogKNSx-35" value="" style="edgeStyle=orthogonalEdgeStyle;rounded=0;orthogonalLoop=1;jettySize=auto;html=1;" edge="1" parent="1" source="3kHz4TNMYk4Un0ogKNSx-31" target="3kHz4TNMYk4Un0ogKNSx-34">
          <mxGeometry relative="1" as="geometry" />
        </mxCell>
        <mxCell id="3kHz4TNMYk4Un0ogKNSx-36" value="10、根据pin/uuid+商品品类信息" style="edgeLabel;html=1;align=center;verticalAlign=middle;resizable=0;points=[];" vertex="1" connectable="0" parent="3kHz4TNMYk4Un0ogKNSx-35">
          <mxGeometry x="-0.52" relative="1" as="geometry">
            <mxPoint x="51" as="offset" />
          </mxGeometry>
        </mxCell>
        <mxCell id="3kHz4TNMYk4Un0ogKNSx-31" value="按会场品类特征&lt;br&gt;推荐商品" style="strokeWidth=1;html=1;shape=mxgraph.flowchart.decision;whiteSpace=wrap;" vertex="1" parent="1">
          <mxGeometry x="827" y="320" width="132.5" height="110" as="geometry" />
        </mxCell>
        <mxCell id="3kHz4TNMYk4Un0ogKNSx-42" style="edgeStyle=orthogonalEdgeStyle;rounded=0;orthogonalLoop=1;jettySize=auto;html=1;entryX=0.25;entryY=0;entryDx=0;entryDy=0;exitX=0.5;exitY=0;exitDx=0;exitDy=0;" edge="1" parent="1" source="3kHz4TNMYk4Un0ogKNSx-34" target="3kHz4TNMYk4Un0ogKNSx-21">
          <mxGeometry relative="1" as="geometry">
            <Array as="points">
              <mxPoint x="1221" y="280" />
              <mxPoint x="579" y="280" />
            </Array>
          </mxGeometry>
        </mxCell>
        <mxCell id="3kHz4TNMYk4Un0ogKNSx-43" value="展示商品信息" style="edgeLabel;html=1;align=center;verticalAlign=middle;resizable=0;points=[];" vertex="1" connectable="0" parent="3kHz4TNMYk4Un0ogKNSx-42">
          <mxGeometry x="-0.0644" relative="1" as="geometry">
            <mxPoint as="offset" />
          </mxGeometry>
        </mxCell>
        <mxCell id="3kHz4TNMYk4Un0ogKNSx-34" value="聚量商品推荐" style="rounded=0;whiteSpace=wrap;html=1;fillColor=#f8cecc;strokeColor=#b85450;" vertex="1" parent="1">
          <mxGeometry x="1170" y="345" width="130" height="60" as="geometry" />
        </mxCell>
      </root>
    </mxGraphModel>
  </diagram>
</mxfile>
